<?xml version="1.0" encoding="UTF-8"?>
<svg version="1.1" xmlns="http://www.w3.org/2000/svg" width="241" height="101">
<path d="M0 0 C79.53 0 159.06 0 241 0 C241 33.33 241 66.66 241 101 C161.47 101 81.94 101 0 101 C0 67.67 0 34.34 0 0 Z " fill="#0D0C0C" transform="translate(0,0)"/>
<path d="M0 0 C3.96 0 7.92 0 12 0 C12 7.92 12 15.84 12 24 C19.92 24 27.84 24 36 24 C36 16.08 36 8.16 36 0 C39.96 0 43.92 0 48 0 C48 8.25 48 16.5 48 25 C44.04 25 40.08 25 36 25 C36 32.59 36 40.18 36 48 C39.96 48 43.92 48 48 48 C48 55.92 48 63.84 48 72 C44.04 72 40.08 72 36 72 C35.67 64.41 35.34 56.82 35 49 C27.41 48.67 19.82 48.34 12 48 C12 40.41 12 32.82 12 25 C8.04 25 4.08 25 0 25 C0 16.75 0 8.5 0 0 Z " fill="#A37135" transform="translate(120,15)"/>
<path d="M0 0 C11.88 0 23.76 0 36 0 C36 3.96 36 7.92 36 12 C28.08 12 20.16 12 12 12 C12 20.25 12 28.5 12 37 C19.92 37 27.84 37 36 37 C36 40.63 36 44.26 36 48 C28.08 48 20.16 48 12 48 C12 56.25 12 64.5 12 73 C8.04 73 4.08 73 0 73 C0 48.91 0 24.82 0 0 Z " fill="#E1E1E1" transform="translate(12,15)"/>
<path d="M0 0 C11.88 0 23.76 0 36 0 C36 3.63 36 7.26 36 11 C32.04 11 28.08 11 24 11 C24 26.84 24 42.68 24 59 C27.96 59 31.92 59 36 59 C36 62.96 36 66.92 36 71 C24.12 71 12.24 71 0 71 C0 67.04 0 63.08 0 59 C3.96 59 7.92 59 12 59 C12 43.16 12 27.32 12 11 C8.04 11 4.08 11 0 11 C0 7.37 0 3.74 0 0 Z " fill="#E6E6E6" transform="translate(72,16)"/>
<path d="M0 0 C3.96 0 7.92 0 12 0 C12 19.8 12 39.6 12 60 C23.88 60 35.76 60 48 60 C48 64.29 48 68.58 48 73 C32.16 73 16.32 73 0 73 C0 48.91 0 24.82 0 0 Z " fill="#CBCBCB" transform="translate(180,15)"/>
<path d="M0 0 C3.3 0 6.6 0 10 0 C10 19.14 10 38.28 10 58 C5.05 58.495 5.05 58.495 0 59 C0 39.53 0 20.06 0 0 Z " fill="#EAEBEB" transform="translate(181,16)"/>
<path d="M0 0 C7.59 0 15.18 0 23 0 C23 7.59 23 15.18 23 23 C15.41 23 7.82 23 0 23 C0 15.41 0 7.82 0 0 Z " fill="#090909" transform="translate(25,28)"/>
<path d="M0 0 C3.63 0 7.26 0 11 0 C12 1 12 1 12.11352539 3.22485352 C12.10828857 4.18319092 12.10305176 5.14152832 12.09765625 6.12890625 C12.09443359 7.16337891 12.09121094 8.19785156 12.08789062 9.26367188 C12.07951172 10.35228516 12.07113281 11.44089844 12.0625 12.5625 C12.05798828 13.65498047 12.05347656 14.74746094 12.04882812 15.87304688 C12.0369984 18.58205432 12.01906231 21.2910338 12 24 C8.04 24 4.08 24 0 24 C0 16.08 0 8.16 0 0 Z " fill="#E89B3E" transform="translate(120,63)"/>
<path d="M0 0 C3.96 0 7.92 0 12 0 C12 7.59 12 15.18 12 23 C8.04 23 4.08 23 0 23 C0 15.41 0 7.82 0 0 Z " fill="#E4E4E4" transform="translate(48,28)"/>
<path d="M0 0 C3.63 0 7.26 0 11 0 C11 7.59 11 15.18 11 23 C7.37 23 3.74 23 0 23 C0 15.41 0 7.82 0 0 Z " fill="#E79B3C" transform="translate(156,64)"/>
<path d="M0 0 C3.63 0 7.26 0 11 0 C11 7.59 11 15.18 11 23 C7.37 23 3.74 23 0 23 C0 15.41 0 7.82 0 0 Z " fill="#E79D41" transform="translate(120,16)"/>
<path d="M0 0 C3.63 0 7.26 0 11 0 C11 7.59 11 15.18 11 23 C7.37 23 3.74 23 0 23 C0 15.41 0 7.82 0 0 Z " fill="#E79D42" transform="translate(156,16)"/>
<path d="M0 0 C7 0 7 0 10 2 C10.34057617 4.24658203 10.34057617 4.24658203 10.29296875 7.0078125 C10.28330078 7.99394531 10.27363281 8.98007813 10.26367188 9.99609375 C10.23853516 11.02863281 10.21339844 12.06117187 10.1875 13.125 C10.17396484 14.16527344 10.16042969 15.20554687 10.14648438 16.27734375 C10.11105633 18.85178179 10.05724812 21.42595474 10 24 C6.7 24 3.4 24 0 24 C0 16.08 0 8.16 0 0 Z " fill="#EEEEEE" transform="translate(13,62)"/>
<path d="M0 0 C3.3 0 6.6 0 10 0 C10 6.6 10 13.2 10 20 C6.7 20 3.4 20 0 20 C0 16.7 0 13.4 0 10 C2.64 10 5.28 10 8 10 C8 9.34 8 8.68 8 8 C5.36 8 2.72 8 0 8 C0 5.36 0 2.72 0 0 Z " fill="#E69D42" transform="translate(145,42)"/>
<path d="M0 0 C3.63 0 7.26 0 11 0 C12 1 12 1 12.11352539 3.22485352 C12.10828857 4.18319092 12.10305176 5.14152832 12.09765625 6.12890625 C12.09443359 7.16337891 12.09121094 8.19785156 12.08789062 9.26367188 C12.07951172 10.35228516 12.07113281 11.44089844 12.0625 12.5625 C12.05798828 13.65498047 12.05347656 14.74746094 12.04882812 15.87304688 C12.0369984 18.58205432 12.01906231 21.2910338 12 24 C8.04 24 4.08 24 0 24 C0 16.08 0 8.16 0 0 Z M2 3 C2 9.27 2 15.54 2 22 C4.64 22 7.28 22 10 22 C10 15.73 10 9.46 10 3 C7.36 3 4.72 3 2 3 Z " fill="#C18F54" transform="translate(120,63)"/>
<path d="M0 0 C3.3 0 6.6 0 10 0 C10 19.14 10 38.28 10 58 C9.34 58 8.68 58 8 58 C8 39.52 8 21.04 8 2 C5.36 2 2.72 2 0 2 C0 1.34 0 0.68 0 0 Z " fill="#F2F4F3" transform="translate(181,16)"/>
<path d="M0 0 C0.66 0.33 1.32 0.66 2 1 C2.02886751 5.14581887 2.04675327 9.29161216 2.0625 13.4375 C2.07087891 14.62150391 2.07925781 15.80550781 2.08789062 17.02539062 C2.09111328 18.15009766 2.09433594 19.27480469 2.09765625 20.43359375 C2.10289307 21.47572021 2.10812988 22.51784668 2.11352539 23.59155273 C2 26 2 26 1 27 C-2.6691577 27.14310287 -6.32715441 27.04221662 -10 27 C-10 33.6 -10 40.2 -10 47 C-6.7 47 -3.4 47 0 47 C0 47.33 0 47.66 0 48 C-3.96 48 -7.92 48 -12 48 C-12 40.41 -12 32.82 -12 25 C-8.04 25 -4.08 25 0 25 C0 16.75 0 8.5 0 0 Z " fill="#2A0F00" transform="translate(168,15)"/>
<path d="M0 0 C7.59 0 15.18 0 23 0 C23 0.66 23 1.32 23 2 C16.07 2 9.14 2 2 2 C2 8.27 2 14.54 2 21 C8.93 21.33 15.86 21.66 23 22 C23 22.33 23 22.66 23 23 C15.41 23 7.82 23 0 23 C0 15.41 0 7.82 0 0 Z " fill="#C7985D" transform="translate(132,40)"/>
<path d="M0 0 C3.63 0 7.26 0 11 0 C11 7.59 11 15.18 11 23 C7.37 23 3.74 23 0 23 C0 15.41 0 7.82 0 0 Z M2 2 C2 8.27 2 14.54 2 21 C4.64 21 7.28 21 10 21 C10 14.73 10 8.46 10 2 C7.36 2 4.72 2 2 2 Z " fill="#CF9A5A" transform="translate(156,64)"/>
<path d="M0 0 C0.66 0.33 1.32 0.66 2 1 C2.02886751 5.14581887 2.04675327 9.29161216 2.0625 13.4375 C2.07087891 14.62150391 2.07925781 15.80550781 2.08789062 17.02539062 C2.09111328 18.15009766 2.09433594 19.27480469 2.09765625 20.43359375 C2.10289307 21.47572021 2.10812988 22.51784668 2.11352539 23.59155273 C2 26 2 26 1 27 C-1.01964199 27.07244053 -3.04167124 27.08377188 -5.0625 27.0625 C-6.71958984 27.04896484 -6.71958984 27.04896484 -8.41015625 27.03515625 C-9.26480469 27.02355469 -10.11945313 27.01195313 -11 27 C-11.33 26.01 -11.66 25.02 -12 24 C-8.04 24 -4.08 24 0 24 C0 16.08 0 8.16 0 0 Z " fill="#301302" transform="translate(168,63)"/>
<path d="M0 0 C2.97 0 5.94 0 9 0 C9 2.97 9 5.94 9 9 C6.03 9 3.06 9 0 9 C0 6.03 0 3.06 0 0 Z " fill="#E59C40" transform="translate(134,52)"/>
<path d="M0 0 C0.66 0 1.32 0 2 0 C2 0.66 2 1.32 2 2 C4.64 2 7.28 2 10 2 C10 4.31 10 6.62 10 9 C6.7 9 3.4 9 0 9 C0 6.03 0 3.06 0 0 Z " fill="#E5E5E7" transform="translate(215,76)"/>
<path d="M0 0 C3.63 0 7.26 0 11 0 C10.67 1.32 10.34 2.64 10 4 C10 3.34 10 2.68 10 2 C7.36 2 4.72 2 2 2 C2 8.6 2 15.2 2 22 C4.64 22 7.28 22 10 22 C10 22.33 10 22.66 10 23 C6.7 23 3.4 23 0 23 C0 15.41 0 7.82 0 0 Z " fill="#C7985F" transform="translate(156,16)"/>
<path d="M0 0 C3.96 0 7.92 0 12 0 C12 7.26 12 14.52 12 22 C8.7 22 5.4 22 2 22 C2 21.67 2 21.34 2 21 C4.64 21 7.28 21 10 21 C10 14.73 10 8.46 10 2 C6.7 2 3.4 2 0 2 C0 1.34 0 0.68 0 0 Z " fill="#080200" transform="translate(119,40)"/>
<path d="M0 0 C3.63 0 7.26 0 11 0 C11 0.66 11 1.32 11 2 C8.03 2 5.06 2 2 2 C2 8.6 2 15.2 2 22 C4.31 22 6.62 22 9 22 C9 22.33 9 22.66 9 23 C6.03 23 3.06 23 0 23 C0 15.41 0 7.82 0 0 Z " fill="#C79960" transform="translate(120,16)"/>
<path d="M0 0 C2.64 0 5.28 0 8 0 C8 2.64 8 5.28 8 8 C5.36 8 2.72 8 0 8 C0 5.36 0 2.72 0 0 Z " fill="#E69B40" transform="translate(134,42)"/>
<path d="M0 0 C11.55 0 23.1 0 35 0 C35 3.63 35 7.26 35 11 C34.01 10.67 33.02 10.34 32 10 C32 7.36 32 4.72 32 2 C21.44 1.67 10.88 1.34 0 1 C0 0.67 0 0.34 0 0 Z " fill="#E6E6E6" transform="translate(13,16)"/>
<path d="M0 0 C3.3 0 6.6 0 10 0 C10 3.3 10 6.6 10 10 C6.7 10 3.4 10 0 10 C0 9.67 0 9.34 0 9 C2.64 9 5.28 9 8 9 C8 6.69 8 4.38 8 2 C5.36 2 2.72 2 0 2 C0 1.34 0 0.68 0 0 Z " fill="#F3F3F5" transform="translate(217,76)"/>
<path d="M0 0 C3.96 0 7.92 0 12 0 C11.67 1.32 11.34 2.64 11 4 C10.67 3.34 10.34 2.68 10 2 C6.7 2 3.4 2 0 2 C0 1.34 0 0.68 0 0 Z " fill="#1D0400" transform="translate(119,40)"/>
</svg>
